<?xml version="1.0" encoding="UTF-8" standalone="no"?>
<svg
   width="602.7597"
   height="602.72131"
   viewBox="0 0 602.7597 602.72131"
   version="1.1"
   xml:space="preserve"
   id="SVGRoot"
   xmlns="http://www.w3.org/2000/svg"
   xmlns:svg="http://www.w3.org/2000/svg"><defs
   id="defs2" />
  
 <style
   type="text/css"
   id="style1">
g.prefab path {
  vector-effect:non-scaling-stroke;
  -inkscape-stroke:hairline;
  fill: none;
  fill-opacity: 1;
  stroke-opacity: 1;
  stroke: #00349c;
}
 </style>
 
<g
   id="g172"
   style="fill:#ef4444;fill-opacity:1"
   transform="translate(-146.89258,-148.57222)"><path
     d="m 385.27924,751.27391 c 88.10872,0.0274 176.21749,0.0199 264.32624,0.0138 55.22847,-0.004 100.05682,-44.77597 100.04682,-100.00444 -0.0158,-87.17513 -0.13931,-174.35051 -0.0543,-261.52547 0.0538,-55.22808 -31.46466,-68.35363 -70.36588,-29.15064 -106.76311,107.59129 -212.99535,216.01312 -321.73414,321.45149 -39.64883,38.44541 -27.44718,69.19811 27.78129,69.21527 z m 263.8731,-186.1154 0,53.65759 a 32.013975,32.013975 135 0 1 -32.01397,32.01398 h -53.6576 a 13.260623,13.260623 67.499999 0 1 -9.37667,-22.6373 l 72.41094,-72.41095 a 13.260622,13.260622 22.499999 0 1 22.6373,9.37668 z"
     style="display:inline;opacity:1;vector-effect:non-scaling-stroke;fill:#ef4444;fill-opacity:1;stroke:none;stroke-opacity:1;-inkscape-stroke:hairline"
     id="path10" /><path
     style="color:#000000;opacity:1;vector-effect:non-scaling-stroke;fill:#ef4444;fill-opacity:1;-inkscape-stroke:hairline"
     d="m 297.73601,371.59293 c 0.009,2.79994 0.0187,5.56059 0.0286,8.25565 0.0406,11.04559 6.42043,26.33193 14.2307,34.14263 5.68983,5.69015 11.37982,11.38013 17.0699,17.07002 26.62947,26.62855 26.63392,69.80453 0.005,96.43412 -15.4566,15.45728 -30.91382,30.91395 -46.37108,46.37057 -19.52661,19.52582 -35.35586,12.96906 -35.35586,-14.64518 V 299.02148 a 50.000005,50.000005 135 0 1 50,-50 l 432.6674,-5e-5 a 19.594411,19.594411 135 0 0 19.59441,-19.59441 v -30.8548 a 49.999996,49.999996 44.999998 0 0 -50,-50 l -452.71297,4e-5 a 100.00001,100.00001 135 0 0 -100,100.00001 v 452.71098 a 50,50 45 0 0 50,50 h 19.95349 c 16.8434,0 40.14566,-9.66208 52.05098,-21.57692 130.16161,-130.26576 260.65513,-260.19781 390.63875,-390.64116 21.90814,-21.98562 14.49022,-39.81653 -16.5477,-39.81462 -21.28985,0.001 -42.57971,3.5e-4 -63.86957,-2.2e-4 -12.04193,-3.3e-4 -28.63203,6.97611 -37.05502,15.582 l -78.55961,80.26558 c -24.48762,25.01938 -59.22045,19.99746 -63.0722,-14.28214 -2.5041,-22.28578 -2.93791,-45.60414 -2.8463,-61.57275 0.0634,-11.04446 -8.5132,-19.99322 -19.55889,-19.9932 l -8.11108,2e-5 c -39.954,9e-5 -72.30992,32.3893 -72.17942,72.34309 z"
     id="path12" /></g></svg>
